<?xml version="1.0" encoding="utf-8"?>
<!-- Generator: Adobe Illustrator 16.0.0, SVG Export Plug-In . SVG Version: 6.00 Build 0)  -->
<!DOCTYPE svg PUBLIC "-//W3C//DTD SVG 1.1//EN" "http://www.w3.org/Graphics/SVG/1.1/DTD/svg11.dtd">
<svg version="1.1" id="Layer_1" xmlns="http://www.w3.org/2000/svg" xmlns:xlink="http://www.w3.org/1999/xlink" x="0px" y="0px"
	 width="841.89px" height="595.28px" viewBox="0 0 841.89 595.28" enable-background="new 0 0 841.89 595.28" xml:space="preserve">
<path d="M693.813,309.41l-19.658,19.617l21.986,21.938H547.308v-30.395l52.154,0.002v-0.292c0.292,0.06,0.59,0.099,0.896,0.099
	c25.064,0,44.742-8.348,59.027-25.04c14.284-16.693,21.426-39.928,21.426-69.711c0-26.072-7.86-47.479-23.579-64.226
	c-15.718-16.746-36.322-25.118-61.813-25.118s-45.06,7.844-58.707,23.528c-13.648,15.686-20.472,37.836-20.472,66.452v68.082
	h-16.042c-11.94-0.382-14.632-1.154-15.509-1.411c-6.418-1.885-12.188-7.85-16.488-16.435c-4.302-8.584-8.579-25.118-12.825-49.6
	l33.774-86.483H456.81l-14.179,43.56h-0.798c-5.522-14.944-13.859-26.628-25.012-35.055c-11.152-8.425-24.057-12.638-38.714-12.638
	c-25.17,0-45.166,9.063-59.98,27.184c-14.817,18.125-22.226,41.441-22.226,69.949c0,25.226,6.424,46.025,19.278,62.398
	c12.85,16.376,30.003,24.563,51.458,24.563c30.271,0,53.741-17.223,70.419-51.667h0.638c0.283,0,3.603,14.619,4.033,15.995
	c1.691,5.403,3.841,10.695,6.802,15.54c8.665,14.181,22.894,19.396,38.843,20.133c1.952,0.089,28.869,0.69,28.869,0.191v30.395
	H320.27L201.692,225.388L311.91,99.668h-42.668l-97.08,115.836c-2.764,3.447-5.126,6.722-7.083,9.826h-0.864V99.668h-34.549V386.25
	h34.549V237.175l140.783,149.093H516.24v83.864l-24.288-24.229l-19.657,19.618l59.486,59.345l59.47-59.345l-19.662-19.615
	l-24.281,24.23v-83.868h149.116l-22.271,22.231l19.661,19.615l59.474-59.361L693.813,309.41z M427.018,234.374
	c-12.852,39.532-31.384,59.296-55.601,59.296c-13.489,0-24.137-5.987-31.942-17.963c-7.807-11.977-11.711-26.654-11.711-44.038
	c0-19.499,4.621-36.032,13.861-49.6c9.24-13.566,21.771-20.349,37.598-20.349c24.32,0,41.103,21.674,50.343,65.021L427.018,234.374z
	 M547.308,225.947c0-42.5,16.143-63.75,48.431-63.75c15.506,0,28.198,6.201,38.076,18.601s14.816,27.82,14.816,46.261
	c0,43.325-16.396,65.755-49.169,67.31v-0.021l-52.154-0.001V225.947z"/>
</svg>
